<svg width="113" height="108" viewBox="0 0 113 108" fill="none" xmlns="http://www.w3.org/2000/svg">
<defs>
    <linearGradient id="paint0_linear_41_38" x1="72.582" y1="68.4524" x2="22.2053" y2="14.0527" gradientUnits="userSpaceOnUse">
        <stop stop-color="#1515B8"/>
        <stop offset="1" stop-color="#121296"/>
    </linearGradient>
</defs>
<path d="M107.074 24.0504C83.2707 -1.65345 45.8808 -5.14633 23.5665 15.5177C15.3066 23.1668 10.1886 33.1292 8.22541 43.948C10.8178 42.421 13.8371 41.2014 17.1278 40.2148C22.3171 38.659 28.3305 37.6391 34.7191 36.9531C46.0147 35.7403 58.7051 35.5514 70.4091 35.3773C71.929 35.3547 73.4323 35.3323 74.9137 35.308C81.3826 35.2017 87.4328 35.0586 92.6912 34.7012C97.9751 34.342 102.331 33.7733 105.459 32.8591C107.022 32.4024 108.172 31.8889 108.955 31.3471C109.723 30.8153 110.036 30.3303 110.152 29.9239C110.39 29.0887 110.088 27.3051 107.074 24.0504ZM4.00919 68.7318C4.76371 71.0866 5.77565 73.4864 6.96806 75.8781C4.66884 69.1298 3.44748 62.1977 3.3192 55.37C2.02793 59.2084 2.41354 63.7519 4.00919 68.7318Z" stroke="url(#paint0_linear_41_38)" stroke-width="4"/>
</svg>
